<!--?xml version="1.0" standalone="no"?-->
              <svg id="sw-js-blob-svg" viewBox="0 0 100 100" xmlns="http://www.w3.org/2000/svg" version="1.1">
                    <defs> 
                        <linearGradient id="sw-gradient" x1="0" x2="1" y1="1" y2="0">
                            <stop id="stop1" stop-color="rgba(88.048, 179.55, 255, 1)" offset="0%"></stop>
                            <stop id="stop2" stop-color="rgba(48, 105, 152, 1)" offset="100%"></stop>
                        </linearGradient>
                    </defs>
                <path fill="url(#sw-gradient)" d="M27,-32.1C34.3,-26.2,38.8,-16.9,40.7,-7C42.6,2.9,41.9,13.3,37.2,21.3C32.4,29.3,23.5,34.7,14.4,36.7C5.4,38.8,-3.8,37.3,-11.7,33.8C-19.6,30.3,-26.2,24.6,-30.8,17.4C-35.4,10.2,-38.1,1.5,-37,-6.9C-36,-15.3,-31.2,-23.4,-24.4,-29.4C-17.6,-35.3,-8.8,-39.2,0.6,-39.9C9.9,-40.5,19.8,-38,27,-32.1Z" width="100%" height="100%" transform="translate(50 50)" stroke-width="0" style="transition: all 0.3s ease 0s;" stroke="url(#sw-gradient)"></path>
              </svg>