<!--?xml version="1.0" standalone="no"?-->
              <svg id="sw-js-blob-svg" viewBox="0 0 100 100" xmlns="http://www.w3.org/2000/svg" version="1.1">
                    <defs> 
                        <linearGradient id="sw-gradient" x1="0" x2="1" y1="1" y2="0">
                            <stop id="stop1" stop-color="rgba(255, 255, 255, 1)" offset="0%"></stop>
                            <stop id="stop2" stop-color="rgba(104.83, 193.373, 218.031, 1)" offset="100%"></stop>
                        </linearGradient>
                    </defs>
                <path fill="url(#sw-gradient)" d="M19.3,-33.9C25,-30.2,29.5,-24.9,32.5,-19C35.5,-13.1,37,-6.5,37.6,0.3C38.1,7.2,37.6,14.3,34.7,20.3C31.7,26.3,26.2,31.1,20,34.9C13.8,38.7,6.9,41.3,-0.5,42.3C-8,43.2,-16,42.4,-23.1,39.2C-30.2,35.9,-36.4,30.3,-39.9,23.3C-43.4,16.4,-44.1,8.2,-43.9,0.1C-43.7,-7.9,-42.5,-15.9,-39.1,-22.9C-35.6,-30,-30,-36.1,-23.1,-39.2C-16.3,-42.3,-8.1,-42.3,-0.7,-41.1C6.8,-40,13.6,-37.7,19.3,-33.9Z" width="100%" height="100%" transform="translate(50 50)" stroke-width="0" style="transition: all 0.3s ease 0s;" stroke="url(#sw-gradient)"></path>
              </svg>